<svg width="119" height="42" viewBox="0 0 119 42" fill="none" xmlns="http://www.w3.org/2000/svg">
<g clip-path="url(#clip0_16_1965)">
<path d="M15.876 11.344V15.18H10.668V31H5.88V15.18H0.672V11.344H15.876ZM33.707 15.376V31H28.919V28.872C28.4336 29.5627 27.771 30.1227 26.931 30.552C26.1096 30.9627 25.195 31.168 24.187 31.168C22.9923 31.168 21.9376 30.9067 21.023 30.384C20.1083 29.8427 19.399 29.068 18.895 28.06C18.391 27.052 18.139 25.8667 18.139 24.504V15.376H22.899V23.86C22.899 24.9053 23.1696 25.7173 23.711 26.296C24.2523 26.8747 24.9803 27.164 25.895 27.164C26.8283 27.164 27.5656 26.8747 28.107 26.296C28.6483 25.7173 28.919 24.9053 28.919 23.86V15.376H33.707ZM57.0822 15.208C59.0235 15.208 60.5635 15.796 61.7022 16.972C62.8595 18.148 63.4382 19.7813 63.4382 21.872V31H58.6782V22.516C58.6782 21.508 58.4075 20.7333 57.8662 20.192C57.3435 19.632 56.6155 19.352 55.6822 19.352C54.7488 19.352 54.0115 19.632 53.4702 20.192C52.9475 20.7333 52.6862 21.508 52.6862 22.516V31H47.9262V22.516C47.9262 21.508 47.6555 20.7333 47.1142 20.192C46.5915 19.632 45.8635 19.352 44.9302 19.352C43.9968 19.352 43.2595 19.632 42.7182 20.192C42.1955 20.7333 41.9342 21.508 41.9342 22.516V31H37.1462V15.376H41.9342V17.336C42.4195 16.6827 43.0542 16.1693 43.8382 15.796C44.6222 15.404 45.5088 15.208 46.4982 15.208C47.6742 15.208 48.7195 15.46 49.6342 15.964C50.5675 16.468 51.2955 17.1867 51.8182 18.12C52.3595 17.2613 53.0968 16.5613 54.0302 16.02C54.9635 15.4787 55.9808 15.208 57.0822 15.208Z" fill="#457D00"/>
<path d="M71.5748 17.588C72.0228 16.86 72.6668 16.272 73.5068 15.824C74.3468 15.376 75.3081 15.152 76.3908 15.152C77.6788 15.152 78.8454 15.4787 79.8908 16.132C80.9361 16.7853 81.7574 17.7187 82.3548 18.932C82.9708 20.1453 83.2788 21.5547 83.2788 23.16C83.2788 24.7653 82.9708 26.184 82.3548 27.416C81.7574 28.6293 80.9361 29.572 79.8908 30.244C78.8454 30.8973 77.6788 31.224 76.3908 31.224C75.2894 31.224 74.3281 31.0093 73.5068 30.58C72.6854 30.132 72.0414 29.544 71.5748 28.816V31H66.7868V10.28H71.5748V17.588ZM78.4068 23.16C78.4068 21.9653 78.0708 21.032 77.3988 20.36C76.7454 19.6693 75.9334 19.324 74.9628 19.324C74.0108 19.324 73.1988 19.6693 72.5268 20.36C71.8734 21.0507 71.5468 21.9933 71.5468 23.188C71.5468 24.3827 71.8734 25.3253 72.5268 26.016C73.1988 26.7067 74.0108 27.052 74.9628 27.052C75.9148 27.052 76.7268 26.7067 77.3988 26.016C78.0708 25.3067 78.4068 24.3547 78.4068 23.16ZM84.8387 23.16C84.8387 21.5547 85.1374 20.1453 85.7347 18.932C86.3507 17.7187 87.1814 16.7853 88.2267 16.132C89.272 15.4787 90.4387 15.152 91.7267 15.152C92.828 15.152 93.7894 15.376 94.6107 15.824C95.4507 16.272 96.0947 16.86 96.5427 17.588V15.376H101.331V31H96.5427V28.788C96.076 29.516 95.4227 30.104 94.5827 30.552C93.7614 31 92.8 31.224 91.6987 31.224C90.4294 31.224 89.272 30.8973 88.2267 30.244C87.1814 29.572 86.3507 28.6293 85.7347 27.416C85.1374 26.184 84.8387 24.7653 84.8387 23.16ZM96.5427 23.188C96.5427 21.9933 96.2067 21.0507 95.5347 20.36C94.8814 19.6693 94.0787 19.324 93.1267 19.324C92.1747 19.324 91.3627 19.6693 90.6907 20.36C90.0374 21.032 89.7107 21.9653 89.7107 23.16C89.7107 24.3547 90.0374 25.3067 90.6907 26.016C91.3627 26.7067 92.1747 27.052 93.1267 27.052C94.0787 27.052 94.8814 26.7067 95.5347 26.016C96.2067 25.3253 96.5427 24.3827 96.5427 23.188ZM111.151 31.224C109.788 31.224 108.575 30.9907 107.511 30.524C106.447 30.0573 105.607 29.4227 104.991 28.62C104.375 27.7987 104.029 26.884 103.955 25.876H108.687C108.743 26.4173 108.995 26.856 109.443 27.192C109.891 27.528 110.441 27.696 111.095 27.696C111.692 27.696 112.149 27.584 112.467 27.36C112.803 27.1173 112.971 26.8093 112.971 26.436C112.971 25.988 112.737 25.6613 112.271 25.456C111.804 25.232 111.048 24.9893 110.003 24.728C108.883 24.4667 107.949 24.196 107.203 23.916C106.456 23.6173 105.812 23.16 105.271 22.544C104.729 21.9093 104.459 21.06 104.459 19.996C104.459 19.1 104.701 18.288 105.187 17.56C105.691 16.8133 106.419 16.2253 107.371 15.796C108.341 15.3667 109.489 15.152 110.815 15.152C112.775 15.152 114.315 15.6373 115.435 16.608C116.573 17.5787 117.227 18.8667 117.395 20.472H112.971C112.896 19.9307 112.653 19.5013 112.243 19.184C111.851 18.8667 111.328 18.708 110.675 18.708C110.115 18.708 109.685 18.82 109.387 19.044C109.088 19.2493 108.939 19.5387 108.939 19.912C108.939 20.36 109.172 20.696 109.639 20.92C110.124 21.144 110.871 21.368 111.879 21.592C113.036 21.8907 113.979 22.1893 114.707 22.488C115.435 22.768 116.069 23.2347 116.611 23.888C117.171 24.5227 117.46 25.3813 117.479 26.464C117.479 27.3787 117.217 28.2 116.695 28.928C116.191 29.6373 115.453 30.1973 114.483 30.608C113.531 31.0187 112.42 31.224 111.151 31.224Z" fill="#FEA938"/>
</g>
<defs>
<clipPath id="clip0_16_1965">
<rect width="119" height="42" fill="white"/>
</clipPath>
</defs>
</svg>
