<?xml version="1.0" standalone="no"?>
<!DOCTYPE svg PUBLIC "-//W3C//DTD SVG 20010904//EN"
 "http://www.w3.org/TR/2001/REC-SVG-20010904/DTD/svg10.dtd">
<svg version="1.0" xmlns="http://www.w3.org/2000/svg"
 width="513.000000pt" height="513.000000pt" viewBox="0 0 513.000000 513.000000"
 preserveAspectRatio="xMidYMid meet">
<metadata>
Created by potrace 1.14, written by Peter Selinger 2001-2017
</metadata>
<g transform="translate(0.000000,513.000000) scale(0.100000,-0.100000)"
fill="#000000" stroke="none">
<path d="M2827 4934 c-1 -1 -24 -5 -52 -8 -81 -9 -193 -44 -292 -91 -51 -24
-98 -48 -105 -54 -7 -6 -31 -25 -53 -42 -121 -92 -217 -209 -296 -365 -71
-139 -106 -178 -158 -176 -15 0 -63 15 -106 32 -196 78 -436 87 -655 23 -352
-102 -626 -373 -716 -708 -17 -63 -21 -87 -28 -160 -16 -161 -35 -225 -91
-298 -73 -96 -128 -209 -150 -313 -20 -88 -11 -241 19 -354 36 -132 151 -322
242 -402 21 -18 43 -39 50 -45 7 -7 15 -13 17 -13 3 0 30 -16 62 -35 50 -30
130 -63 160 -66 6 -1 17 -5 25 -9 14 -7 44 -14 130 -26 19 -3 91 -7 159 -8
113 -2 126 -1 148 18 42 37 36 147 -10 162 -11 3 -79 8 -151 9 -137 3 -175 8
-242 31 -206 70 -331 197 -405 411 -18 54 -27 101 -33 183 -3 47 19 149 46
212 12 28 50 89 84 135 102 136 113 169 119 338 4 104 5 111 25 185 46 175
171 341 339 454 69 46 184 108 209 112 8 1 21 6 30 10 19 8 26 10 62 19 110
28 264 26 380 -4 47 -12 94 -25 105 -30 91 -40 164 -76 221 -111 37 -22 71
-37 76 -32 4 4 23 45 42 90 140 335 512 596 851 595 70 0 175 -13 223 -27 9
-3 29 -7 43 -10 44 -7 180 -65 243 -103 71 -44 182 -146 243 -226 25 -32 72
-111 105 -175 65 -128 81 -149 118 -165 30 -12 26 -11 115 -31 39 -9 75 -18
80 -19 35 -9 137 -64 181 -97 97 -73 187 -218 220 -355 8 -29 13 -56 18 -89
14 -84 47 -125 163 -199 105 -67 171 -154 214 -282 24 -71 27 -92 24 -190 -4
-128 -7 -147 -42 -235 -53 -135 -144 -237 -277 -310 -128 -72 -174 -82 -400
-84 -196 -2 -198 -3 -216 -26 -13 -17 -18 -39 -16 -77 2 -86 6 -87 214 -87
219 0 294 10 387 50 22 10 45 19 52 20 20 4 124 70 185 118 62 49 152 156 191
226 75 135 104 250 101 400 -1 81 -5 115 -18 175 -37 167 -146 346 -273 447
-76 60 -102 104 -137 225 -78 280 -254 463 -530 552 -148 48 -179 80 -250 261
-103 262 -269 446 -500 553 -60 28 -115 48 -136 49 -3 0 -12 4 -20 8 -8 4 -31
11 -50 14 -19 3 -46 8 -60 11 -25 6 -248 14 -253 9z"/>
<path d="M1305 3985 c-187 -51 -265 -86 -360 -163 -120 -97 -230 -280 -258
-432 -3 -14 -8 -32 -11 -40 -26 -70 -5 -99 76 -107 47 -4 56 -2 76 20 13 13
25 37 28 53 25 146 69 238 154 325 73 74 179 134 258 144 84 12 121 25 133 48
16 28 12 118 -5 135 -13 13 -68 23 -91 17z"/>
<path d="M2943 3739 c-47 -17 -46 -13 -46 -767 0 -704 1 -714 21 -734 19 -20
81 -28 122 -17 45 12 45 1 45 759 0 701 0 715 -20 738 -22 24 -84 35 -122 21z"/>
<path d="M2640 3516 c-26 -8 -38 -19 -45 -42 -7 -20 -10 -248 -10 -623 0 -589
1 -591 22 -612 41 -41 137 -27 159 23 6 14 10 242 9 620 0 583 -1 598 -20 617
-25 25 -71 32 -115 17z"/>
<path d="M3595 3335 c-36 -13 -73 -46 -76 -70 -1 -5 -3 -57 -4 -115 -3 -99 -6
-134 -19 -198 -7 -35 -15 -92 -21 -150 -3 -26 -8 -64 -11 -84 -3 -21 -5 -40
-5 -43 3 -12 -48 -101 -67 -118 -24 -22 -97 -45 -132 -42 -14 2 -46 6 -72 10
-40 6 -48 4 -57 -14 -20 -36 -13 -107 12 -137 23 -26 28 -27 126 -28 94 -1
105 -3 121 -24 20 -24 19 -56 -5 -132 -16 -54 -36 -127 -41 -155 -2 -11 -6
-31 -9 -45 -3 -14 -7 -38 -10 -55 -3 -16 -8 -43 -11 -60 -4 -16 -8 -118 -10
-225 -1 -107 -3 -201 -3 -208 -1 -7 -12 -24 -26 -38 l-24 -24 -821 0 -820 0
-33 34 c-19 18 -34 40 -34 47 0 8 -4 37 -7 64 -4 28 -9 70 -11 95 -3 25 -7 63
-10 85 -2 22 -7 63 -10 90 -3 28 -8 73 -11 100 -7 56 -9 76 -18 158 -3 32 -9
79 -12 105 -3 26 -7 63 -9 82 -5 44 -14 125 -20 167 -5 43 15 62 66 61 52 -1
62 11 65 72 2 77 -9 83 -168 84 -124 1 -135 -1 -155 -21 -17 -16 -21 -30 -18
-55 3 -18 7 -56 10 -84 3 -28 7 -61 10 -73 2 -12 7 -49 10 -82 4 -33 8 -69 10
-80 2 -11 7 -47 10 -80 4 -33 8 -69 10 -79 2 -10 6 -45 10 -77 3 -32 8 -69 10
-83 2 -14 7 -50 10 -80 3 -30 8 -66 10 -80 2 -14 7 -50 10 -80 4 -30 9 -66 10
-80 2 -14 6 -52 10 -85 4 -33 9 -68 11 -78 2 -10 6 -46 9 -80 8 -72 36 -132
67 -143 13 -5 403 -9 868 -10 465 -1 855 -4 866 -7 44 -11 64 -32 71 -72 4
-22 7 -42 6 -45 -1 -3 -4 -41 -8 -85 -7 -92 -26 -133 -74 -157 -44 -22 -79 -9
-126 45 -71 82 -108 116 -159 144 -45 25 -61 28 -141 28 -115 0 -160 -23 -266
-132 -94 -96 -122 -109 -179 -81 -23 12 -55 39 -73 62 -150 200 -406 211 -543
24 -53 -72 -93 -92 -188 -94 -99 -3 -118 -17 -119 -93 -1 -78 20 -94 121 -96
91 -1 117 -15 194 -106 94 -112 215 -156 337 -124 84 22 114 45 217 163 40 46
81 72 112 72 21 0 76 -50 139 -125 86 -105 237 -148 366 -104 51 17 77 40 154
136 28 36 80 70 123 81 8 2 61 5 116 6 66 1 107 6 117 15 17 13 27 47 32 109
3 34 13 117 20 167 1 11 5 45 9 75 10 82 16 124 20 145 2 11 7 49 11 85 4 36
8 72 10 80 2 8 6 44 10 80 4 36 9 73 10 82 2 9 7 48 10 85 4 37 8 79 10 93 3
14 7 50 11 80 3 30 7 66 9 80 2 14 6 52 10 85 3 33 8 71 10 85 4 28 13 105 20
165 6 59 15 137 20 165 2 14 6 55 10 92 3 37 8 75 10 86 2 10 6 43 9 73 3 30
8 71 11 92 3 20 7 59 10 85 8 76 14 124 20 172 3 25 8 65 11 90 9 75 12 88 26
116 21 44 59 66 109 64 197 -6 323 -2 343 13 29 21 27 104 -3 128 -20 17 -41
18 -219 17 -108 0 -219 2 -247 5 -31 3 -65 0 -90 -8z"/>
<path d="M1980 3230 c-19 -19 -20 -34 -20 -491 0 -281 4 -478 10 -489 13 -23
57 -38 97 -33 58 9 58 11 58 526 0 442 -1 466 -19 486 -26 28 -98 29 -126 1z"/>
<path d="M2271 3006 c-19 -20 -20 -38 -21 -383 0 -351 0 -363 20 -383 11 -11
28 -20 38 -21 9 0 26 -2 36 -4 22 -4 85 19 87 32 1 4 2 172 3 372 2 343 1 365
-17 388 -17 21 -27 24 -73 22 -40 -2 -59 -8 -73 -23z"/>
<path d="M1647 2852 c-15 -16 -17 -53 -17 -309 0 -275 1 -291 20 -308 28 -26
100 -23 122 6 16 19 18 50 18 319 0 335 6 310 -79 310 -34 0 -53 -5 -64 -18z"/>
</g>
</svg>
